<?xml version="1.0" encoding="utf-8"?>
<!-- Generator: Adobe Illustrator 16.0.0, SVG Export Plug-In . SVG Version: 6.00 Build 0)  -->
<!DOCTYPE svg PUBLIC "-//W3C//DTD SVG 1.1//EN" "http://www.w3.org/Graphics/SVG/1.1/DTD/svg11.dtd">
<svg xmlns="http://www.w3.org/2000/svg" xmlns:xlink="http://www.w3.org/1999/xlink" version="1.1" id="Layer_1" x="0px" y="0px" width="512px" height="512px" viewBox="0 0 24 24" enable-background="new 0 0 24 24" xml:space="preserve">
<g>
	<path d="M16.263,12.47c1.632-1.278,2.685-3.262,2.685-5.49C18.947,3.131,15.816,0,11.969,0S4.99,3.131,4.99,6.979   c0,2.24,1.064,4.231,2.71,5.509c-2.288,1.25-3.872,3.741-3.872,6.108V24h16.344v-5.403C20.172,16.218,18.57,13.714,16.263,12.47z    M12.408,6.592c-0.24,0-0.48,0-0.721,0c-0.541-1.874-3.95-1.871-4.48,0.01C6.82,6.603,6.434,6.603,6.047,6.603   c-0.008,0-0.015,0.005-0.023,0.005C6.562,5.65,7.074,4.847,7.54,4.188c0.695-0.97,1.289-1.635,1.727-2.07   C9.755,1.635,9.895,1.59,9.895,1.59s0.252,0.101,0.298,0.151c0.368,0.419,1.819,1.542,3.448,2.703   c0.298,0.213,0.602,0.426,0.905,0.638C13.564,5.121,12.621,5.625,12.408,6.592z M11.139,6.939c-0.133,1.537-3.248,1.537-3.381,0   C7.629,5.44,11.005,5.393,11.139,6.939z M16.36,6.829c-0.132,1.537-3.248,1.537-3.38,0C12.852,5.329,16.228,5.281,16.36,6.829z    M6.002,7.213c0.016,0.003,0.028,0.01,0.045,0.01C6.418,7.222,6.789,7.222,7.16,7.222c0.141,0.984,1.449,1.435,2.287,1.473   c0.986,0.044,2.012-0.523,2.255-1.482c0.229,0,0.458,0,0.688,0c0.211,0.916,1.469,1.335,2.279,1.371   c0.955,0.043,1.951-0.485,2.234-1.389c0.298,0,0.596,0,0.893,0c0.047,0.026,0.092,0.053,0.137,0.077   c-0.154,3.161-2.767,5.688-5.965,5.688C8.751,12.959,6.126,10.401,6.002,7.213z M11.958,23.751l-0.011,0.012l0.005-0.019   l-5.089-5.527l1.963-1.929l-3.063-0.896l2.241-2.675c0.959,0.665,2.091,1.096,3.314,1.209l-0.655,0.793l0.996,1.16   c0,0-0.789,0.904-1.041,4.979c-0.059,0.936,0.598,1.321,1.357,2.896l-0.008,0.009L11.958,23.751z M15.228,16.425l1.825,1.792   l-4.744,5.153l-0.285,0.329c0.205-0.303,1.35-2.034,1.297-2.888c-0.252-4.075-1.092-4.933-1.092-4.933l0.998-1.16l-0.656-0.79   c1.235-0.106,2.38-0.534,3.349-1.202l2.233,2.665l-2.846,0.833l-0.195,0.063L15.228,16.425z" fill="#D80027"/>
</g>
</svg>
